# xmcd
#
# Track frame offsets:
#	149
#	18790
#	38620
#	58152
#	83599
#	101869
#	121721
#	139681
#	172379
#
# Disc length: 2553 seconds
#
# Revision: 0
# Processed by: cddbd v1.4PL0 Copyright (c) Steve Scherf et al.
# Submitted via: dBpowerAMP V4.0
#
DISCID=6e09f809
DTITLE=Aonnie Ray - Are You Ready For Me
DYEAR=1900
DGENRE=
TTITLE0=Never Meant To Be Alone
TTITLE1=Come Back 
TTITLE2=One Slip
TTITLE3=From Now On
TTITLE4=I'm In The Mood
TTITLE5=Let's Keep Love Together
TTITLE6=I've Been Cheating
TTITLE7=You Put A Spell On Me
TTITLE8=DATA
EXTD=
EXTT0=
EXTT1=
EXTT2=
EXTT3=
EXTT4=
EXTT5=
EXTT6=
EXTT7=
EXTT8=
PLAYORDER=
